<svg width="128" height="128" viewBox="0 0 128 128" fill="none" xmlns="http://www.w3.org/2000/svg">
<path d="M73.2308 64C73.2308 69.098 69.098 73.2308 64 73.2308C58.902 73.2308 54.7692 69.098 54.7692 64C54.7692 58.902 58.902 54.7692 64 54.7692C69.098 54.7692 73.2308 58.902 73.2308 64Z" fill="#EFEFF1"/>
<path d="M85.5385 97.2069V104H104V85.5385H96.9427C93.9804 90.1653 90.0918 94.142 85.5385 97.2069Z" fill="#EFEFF1"/>
<path d="M64 91.6923C48.706 91.6923 36.3077 79.294 36.3077 64C36.3077 48.706 48.706 36.3077 64 36.3077C79.294 36.3077 91.6923 48.706 91.6923 64H104C104 41.9086 86.0914 24 64 24C41.9086 24 24 41.9086 24 64C24 86.0914 41.9086 104 64 104V91.6923Z" fill="#EFEFF1"/>
<path d="M64 91.6923H76.3077V104H64V91.6923Z" fill="#EFEFF1"/>
<path d="M91.6923 64H104V76.3077H91.6923V64Z" fill="#EFEFF1"/>
</svg>
