<svg width="128" height="128" viewBox="0 0 128 128" fill="none" xmlns="http://www.w3.org/2000/svg">
<path d="M71.3846 64C71.3846 68.0784 68.0784 71.3846 64 71.3846C59.9216 71.3846 56.6154 68.0784 56.6154 64C56.6154 59.9216 59.9216 56.6154 64 56.6154C68.0784 56.6154 71.3846 59.9216 71.3846 64Z" fill="#EFEFF1"/>
<path d="M81.2308 90.5655V96H96V81.2308H90.3541C87.9844 84.9322 84.8735 88.1136 81.2308 90.5655Z" fill="#EFEFF1"/>
<path d="M64 86.1538C51.7648 86.1538 41.8462 76.2352 41.8462 64C41.8462 51.7648 51.7648 41.8462 64 41.8462C76.2352 41.8462 86.1538 51.7648 86.1538 64H96C96 46.3269 81.6731 32 64 32C46.3269 32 32 46.3269 32 64C32 81.6731 46.3269 96 64 96V86.1538Z" fill="#EFEFF1"/>
<path d="M64 86.1538H73.8462V96H64V86.1538Z" fill="#EFEFF1"/>
<path d="M86.1538 64H96V73.8462H86.1538V64Z" fill="#EFEFF1"/>
</svg>
